<svg width="116" height="28" viewBox="0 0 116 28" fill="none" xmlns="http://www.w3.org/2000/svg">
<g clip-path="url(#clip0)">
<mask id="mask0" mask-type="alpha" maskUnits="userSpaceOnUse" x="0" y="3" width="117" height="19">
<path d="M0.799242 21V19.768L2.82324 19.284V7.316L0.799242 6.832V5.6H12.4812V10.11H11.1832L10.3032 7.294H6.40924V12.398L10.5012 12.024V14.202L6.40924 13.872V19.306H10.3472L11.8432 16.248H13.1412L12.4812 21H0.799242ZM13.8427 11.166V10H20.5747V11.166L19.0787 11.518L21.3007 16.776L23.4787 11.54L22.0267 11.166V10H26.8007V11.166L24.9527 11.65L21.0367 21.154H19.4967L15.4267 11.628L13.8427 11.166ZM27.4624 15.368C27.4624 13.6373 27.9464 12.2587 28.9144 11.232C29.897 10.1907 31.2244 9.67 32.8964 9.67C34.5977 9.67 35.8811 10.2493 36.7464 11.408C37.6264 12.5667 38.0664 13.9967 38.0664 15.698H30.8504C30.953 16.7833 31.3417 17.722 32.0164 18.514C32.691 19.2913 33.5564 19.68 34.6124 19.68C35.4044 19.68 36.2551 19.5113 37.1644 19.174L37.6264 20.428C36.2624 21.0293 34.9277 21.33 33.6224 21.33C31.7304 21.33 30.227 20.78 29.1124 19.68C28.0124 18.5653 27.4624 17.128 27.4624 15.368ZM30.8504 14.334L34.5684 14.092C34.5684 13.74 34.5464 13.4173 34.5024 13.124C34.4584 12.816 34.3337 12.4493 34.1284 12.024C33.7617 11.408 33.329 11.1 32.8304 11.1C32.2437 11.1 31.7597 11.4007 31.3784 12.002C31.1584 12.3687 31.0117 12.772 30.9384 13.212C30.865 13.652 30.8357 14.026 30.8504 14.334ZM39.3407 21V19.834L41.2107 19.394V12.002H39.3407V10.836L42.8607 10H44.5987V11.078C45.4933 10.1393 46.6007 9.67 47.9207 9.67C48.4927 9.67 49.006 9.758 49.4607 9.934C49.93 10.0953 50.3187 10.33 50.6267 10.638C50.9493 10.946 51.1987 11.3127 51.3747 11.738C51.5507 12.1633 51.6387 12.6253 51.6387 13.124V19.394L53.5087 19.834V21H46.8207V19.834L48.2507 19.394V13.74C48.2507 13.2853 48.2213 12.9187 48.1627 12.64C48.1187 12.3613 48.038 12.1487 47.9207 12.002C47.8033 11.8407 47.642 11.738 47.4367 11.694C47.246 11.6353 47.004 11.606 46.7107 11.606C46.1533 11.606 45.4493 11.9287 44.5987 12.574V19.394L46.0287 19.834V21H39.3407ZM54.2713 11.54V10.66L58.0113 7.998H58.8253V10.11L61.5533 10V11.54H58.8253V17.832C58.8253 18.5507 58.9059 19.0567 59.0673 19.35C59.2286 19.6433 59.5586 19.79 60.0573 19.79C60.4239 19.79 60.9153 19.658 61.5313 19.394L61.8833 20.626C61.0033 21.0953 60.0719 21.33 59.0893 21.33C56.6546 21.33 55.4373 20.2007 55.4373 17.942V11.54H54.2713ZM62.9157 13.3C62.9157 10.7333 63.5977 8.75333 64.9617 7.36C66.3404 5.96667 68.3497 5.27 70.9897 5.27C71.6937 5.27 72.4564 5.358 73.2777 5.534C74.0991 5.69533 74.7664 5.89333 75.2797 6.128V10.198H74.0477L73.0797 7.096C72.5811 7.008 72.1631 6.964 71.8257 6.964C69.9924 6.964 68.6577 7.47733 67.8217 8.504C66.9857 9.516 66.5677 11.1147 66.5677 13.3C66.5677 15.4707 66.9637 17.0693 67.7557 18.096C68.5477 19.1227 69.7797 19.636 71.4517 19.636C71.8037 19.636 72.2144 19.5993 72.6837 19.526L74.3117 16.204H75.5437L74.9717 20.252C74.4584 20.5307 73.7984 20.78 72.9917 21C72.1997 21.22 71.4077 21.33 70.6157 21.33C68.1517 21.33 66.2524 20.6333 64.9177 19.24C63.5831 17.832 62.9157 15.852 62.9157 13.3ZM77.0672 21V19.834L78.9372 19.394V12.002H77.0672V10.836L80.5872 10H82.3252V11.32C83.4252 10.22 84.7306 9.67 86.2412 9.67C86.3292 9.94867 86.3732 10.2567 86.3732 10.594C86.3732 11.2687 86.2999 11.8993 86.1532 12.486L83.3812 12.024C83.0292 12.1853 82.6772 12.42 82.3252 12.728V19.394L84.6352 19.834V21H77.0672ZM87.3368 18.272C87.3368 16.996 87.8574 16.028 88.8988 15.368C89.9548 14.6933 91.6561 14.356 94.0028 14.356V13.696C94.0028 13.256 93.9954 12.9407 93.9808 12.75C93.9808 12.5447 93.9514 12.3027 93.8928 12.024C93.8341 11.7453 93.7461 11.5473 93.6288 11.43C93.5261 11.3127 93.3648 11.21 93.1448 11.122C92.9248 11.0193 92.6534 10.968 92.3308 10.968L89.5368 13.388C88.5394 12.816 88.0408 11.9287 88.0408 10.726L88.7008 10.44C88.9794 10.3227 89.5221 10.1687 90.3288 9.978C91.1354 9.77267 91.9201 9.67 92.6828 9.67C95.8361 9.67 97.4128 10.9313 97.4128 13.454V19.35H99.1288V20.296C99.0554 20.3693 98.9528 20.4647 98.8208 20.582C98.6888 20.6993 98.4028 20.8533 97.9628 21.044C97.5228 21.2347 97.0681 21.33 96.5988 21.33C95.4841 21.33 94.6554 20.956 94.1128 20.208C93.1301 20.956 92.0594 21.33 90.9008 21.33C89.8888 21.33 89.0381 21.0733 88.3488 20.56C87.6741 20.0467 87.3368 19.284 87.3368 18.272ZM90.8788 18.074C90.8788 18.4993 91.0181 18.8367 91.2968 19.086C91.5901 19.3353 91.9421 19.46 92.3528 19.46C93.0128 19.46 93.5628 19.218 94.0028 18.734V15.72C93.1814 15.72 92.4554 15.94 91.8248 16.38C91.1941 16.8053 90.8788 17.37 90.8788 18.074ZM99.8606 21V19.834L101.731 19.394V11.408H99.8826V10.154L101.731 10.022V8.372C101.731 6.656 102.119 5.34333 102.897 4.434C103.689 3.52467 104.818 3.07 106.285 3.07C106.901 3.07 107.546 3.136 108.221 3.268C108.895 3.38533 109.416 3.50267 109.783 3.62L110.333 3.796C110.347 4.30933 110.223 4.81533 109.959 5.314C109.709 5.798 109.387 6.14267 108.991 6.348L107.165 4.5C106.871 4.5 106.615 4.544 106.395 4.632C106.189 4.72 105.977 4.88867 105.757 5.138C105.551 5.38733 105.39 5.78333 105.273 6.326C105.17 6.86867 105.119 7.55067 105.119 8.372V9.802L108.133 9.604V11.408H105.119V19.394L107.715 19.834V21H99.8606ZM109.228 11.54V10.66L112.968 7.998H113.782V10.11L116.51 10V11.54H113.782V17.832C113.782 18.5507 113.863 19.0567 114.024 19.35C114.186 19.6433 114.516 19.79 115.014 19.79C115.381 19.79 115.872 19.658 116.488 19.394L116.84 20.626C115.96 21.0953 115.029 21.33 114.046 21.33C111.612 21.33 110.394 20.2007 110.394 17.942V11.54H109.228Z" fill="white"/>
</mask>
<g mask="url(#mask0)">
<rect width="116" height="28" fill="url(#paint0_linear)"/>
</g>
</g>
<defs>
<linearGradient id="paint0_linear" x1="1.36122e-07" y1="14" x2="116" y2="14" gradientUnits="userSpaceOnUse">
<stop stop-color="#0BC8F5"/>
<stop offset="1" stop-color="#FFABF2"/>
</linearGradient>
<clipPath id="clip0">
<rect width="116" height="28" fill="white"/>
</clipPath>
</defs>
</svg>
